<svg xmlns:dc="http://purl.org/dc/elements/1.1/" xmlns:cc="http://creativecommons.org/ns#" xmlns:rdf="http://www.w3.org/1999/02/22-rdf-syntax-ns#" xmlns:svg="http://www.w3.org/2000/svg" xmlns="http://www.w3.org/2000/svg" xmlns:sodipodi="http://sodipodi.sourceforge.net/DTD/sodipodi-0.dtd" xmlns:inkscape="http://www.inkscape.org/namespaces/inkscape" version="1.1" width="1975.96" height="1975.91" viewBox="0 0 1975.96 1975.91" id="svg2" xml:space="preserve" inkscape:version="0.48" sodipodi:docname="spotify_2014.svg">
  <sodipodi:namedview pagecolor="#ffffff" bordercolor="#666666" borderopacity="1" objecttolerance="10" gridtolerance="10" guidetolerance="10" inkscape:pageopacity="0" inkscape:pageshadow="2" inkscape:window-width="1920" inkscape:window-height="1057" id="namedview59" showgrid="false" fit-margin-top="0" fit-margin-left="0" fit-margin-right="0" fit-margin-bottom="0" inkscape:zoom="0.18" inkscape:cx="1832.35" inkscape:cy="802.15" inkscape:window-x="1912" inkscape:window-y="-8" inkscape:window-maximized="1" inkscape:current-layer="svg2"/>
  <metadata id="metadata8">
    <rdf:RDF>
      <cc:Work rdf:about="">
        <dc:format>
          image/svg+xml
        </dc:format>
        <dc:type rdf:resource="http://purl.org/dc/dcmitype/StillImage"/>
      </cc:Work>
    </rdf:RDF>
  </metadata>
  <defs id="defs6">
    <clipPath id="clipPath18">
      <path d="m0 0 11305.5 0 0 14665L0 14665 0 0z" id="path20" inkscape:connector-curvature="0"/>
    </clipPath>
  </defs>
  <g transform="matrix(1.3333333,0,0,-1.3333333,-5.078437e-6,2563.1291)" id="g10">
    <g transform="scale(0.131084,0.131084)" id="g12">
      <g id="g14">
        <g clip-path="url(#clipPath18)" id="g16">
          <path d="M11305.5 9012.52C11305.5 5890.58 8774.69 3359.76 5652.76 3359.76 2530.82 3359.76 0 5890.58 0 9012.52c0 3121.88 2530.82 5652.78 5652.76 5652.78 3121.93 0 5652.74-2530.9 5652.74-5652.78" id="path22" inkscape:connector-curvature="0" style="fill-rule:evenodd;fill:#6cba2f"/>
          <path d="m11209.8 9053.19c0-3069.08-2487.98-5557.03-5557.04-5557.03-3069.05 0-5557.02 2487.95-5557.02 5557.03 0 3069.01 2487.97 5557.01 5557.02 5557.01 3069.06 0 5557.04-2488 5557.04-5557.01" id="path24" inkscape:connector-curvature="0" style="fill-rule:evenodd;fill:#6dbc2e"/>
          <path d="m11114 9093.86c0-3016.15-2445.04-5461.3-5461.24-5461.3-3016.19 0-5461.28 2445.15-5461.28 5461.3 0 3016.14 2445.09 5461.24 5461.28 5461.24 3016.2 0 5461.24-2445.1 5461.24-5461.24" id="path26" inkscape:connector-curvature="0" style="fill-rule:evenodd;fill:#6ebc2e"/>
          <path d="m11018.3 9134.54c0-2963.3-2402.21-5365.58-5365.54-5365.58-2963.31 0-5365.54 2402.28-5365.54 5365.58 0 2963.26 2402.24 5365.56 5365.55 5365.56 2963.33 0 5365.54-2402.3 5365.54-5365.56" id="path28" inkscape:connector-curvature="0" style="fill-rule:evenodd;fill:#6fbd2e"/>
          <path d="m10922.6 9175.21c0-2910.44-2359.38-5269.77-5269.84-5269.77-2910.43 0-5269.81 2359.33-5269.81 5269.77 0 2910.39 2359.38 5269.79 5269.81 5269.79 2910.46 0 5269.84-2359.4 5269.84-5269.79" id="path30" inkscape:connector-curvature="0" style="fill-rule:evenodd;fill:#70be2d"/>
          <path d="m10826.8 9215.88c0-2857.58-2316.44-5174.04-5174.04-5174.04-2857.56 0-5174.07 2316.46-5174.07 5174.04 0 2857.52 2316.51 5174.12 5174.07 5174.12 2857.6 0 5174.04-2316.6 5174.04-5174.12" id="path32" inkscape:connector-curvature="0" style="fill-rule:evenodd;fill:#71bf2d"/>
          <path d="m10731.1 9256.56c0-2804.66-2273.61-5078.32-5078.34-5078.32-2804.68 0-5078.33 2273.66-5078.33 5078.32 0 2804.64 2273.65 5078.34 5078.33 5078.34 2804.73 0 5078.34-2273.7 5078.34-5078.34" id="path34" inkscape:connector-curvature="0" style="fill-rule:evenodd;fill:#72c02d"/>
          <path d="m10635.3 9297.23c0-2751.8-2230.68-4982.59-4982.54-4982.59-2751.81 0-4982.6 2230.79-4982.6 4982.59 0 2751.77 2230.79 4982.57 4982.6 4982.57 2751.86 0 4982.54-2230.8 4982.54-4982.57" id="path36" inkscape:connector-curvature="0" style="fill-rule:evenodd;fill:#73c12c"/>
          <path d="m10539.6 9337.91c0-2698.95-2187.92-4886.87-4886.84-4886.87-2698.94 0-4886.87 2187.92-4886.87 4886.87 0 2698.99 2187.93 4886.89 4886.87 4886.89 2698.92 0 4886.84-2187.9 4886.84-4886.89" id="path38" inkscape:connector-curvature="0" style="fill-rule:evenodd;fill:#74c12c"/>
          <path d="m10443.9 9378.58c0-2646.1-2145.09-4791.13-4791.14-4791.13-2646.06 0-4791.13 2145.03-4791.13 4791.13 0 2646.02 2145.07 4791.12 4791.13 4791.12 2646.05 0 4791.14-2145.1 4791.14-4791.12" id="path40" inkscape:connector-curvature="0" style="fill-rule:evenodd;fill:#75c22c"/>
          <path d="m10348.2 9419.25c0-2593.16-2102.25-4695.4-4695.44-4695.4-2593.18 0-4695.39 2102.24-4695.39 4695.4 0 2593.15 2102.21 4695.35 4695.39 4695.35 2593.19 0 4695.44-2102.2 4695.44-4695.35" id="path42" inkscape:connector-curvature="0" style="fill-rule:evenodd;fill:#76c32b"/>
          <path d="m10252.4 9459.93c0-2540.31-2059.32-4599.68-4599.64-4599.68-2540.32 0-4599.65 2059.37-4599.65 4599.68 0 2540.27 2059.33 4599.67 4599.65 4599.67 2540.32 0 4599.64-2059.4 4599.64-4599.67" id="path44" inkscape:connector-curvature="0" style="fill-rule:evenodd;fill:#76c22b"/>
          <path d="m10156.7 9500.61c0-2487.47-2016.49-4503.88-4503.94-4503.88-2487.44 0-4503.91 2016.41-4503.91 4503.88 0 2487.49 2016.47 4503.89 4503.91 4503.89 2487.45 0 4503.94-2016.4 4503.94-4503.89" id="path46" inkscape:connector-curvature="0" style="fill-rule:evenodd;fill:#77c32b"/>
          <path d="m10061 9541.28c0-2434.57-1973.66-4408.15-4408.24-4408.15-2434.57 0-4408.17 1973.58-4408.17 4408.15 0 2434.52 1973.6 4408.22 4408.17 4408.22 2434.58 0 4408.24-1973.7 4408.24-4408.22" id="path48" inkscape:connector-curvature="0" style="fill-rule:evenodd;fill:#78c42b"/>
          <path d="m9965.23 9581.95c0-2381.69-1930.75-4312.42-4312.47-4312.42-2381.69 0-4312.44 1930.73-4312.44 4312.42 0 2381.65 1930.75 4312.45 4312.44 4312.45 2381.72 0 4312.47-1930.8 4312.47-4312.45" id="path50" inkscape:connector-curvature="0" style="fill-rule:evenodd;fill:#79c42c"/>
          <path d="m9869.48 9622.63c0-2328.83-1887.87-4216.7-4216.72-4216.7-2328.82 0-4216.7 1887.87-4216.7 4216.7 0 2328.77 1887.88 4216.67 4216.7 4216.67 2328.85 0 4216.72-1887.9 4216.72-4216.67" id="path52" inkscape:connector-curvature="0" style="fill-rule:evenodd;fill:#7ac52c"/>
          <path d="m9773.75 9663.3c0-2275.94-1845.01-4120.97-4120.99-4120.97-2275.94 0-4120.97 1845.03-4120.97 4120.97 0 2276 1845.03 4121 4120.97 4121 2275.98 0 4120.99-1845 4120.99-4121" id="path54" inkscape:connector-curvature="0" style="fill-rule:evenodd;fill:#7bc62c"/>
          <path d="m9678 9703.98c0-2223.07-1802.12-4025.25-4025.24-4025.25-2223.07 0-4025.22 1802.18-4025.22 4025.25 0 2223.02 1802.15 4025.22 4025.22 4025.22C7875.88 13729.2 9678 11927 9678 9703.98" id="path56" inkscape:connector-curvature="0" style="fill-rule:evenodd;fill:#7cc62c"/>
          <path d="m9582.27 9744.65c0-2170.2-1759.34-3929.52-3929.51-3929.52-2170.19 0-3929.49 1759.32-3929.49 3929.52 0 2170.15 1759.3 3929.45 3929.49 3929.45 2170.17 0 3929.51-1759.3 3929.51-3929.45" id="path58" inkscape:connector-curvature="0" style="fill-rule:evenodd;fill:#7dc72c"/>
          <path d="M9486.52 9785.32C9486.52 7668 7770.07 5951.54 5652.76 5951.54 3535.43 5951.54 1819 7668 1819 9785.32c0 2117.28 1716.43 3833.78 3833.76 3833.78 2117.31 0 3833.76-1716.5 3833.76-3833.78" id="path60" inkscape:connector-curvature="0" style="fill-rule:evenodd;fill:#7ec82c"/>
          <path d="m9390.79 9826c0-2064.45-1673.59-3737.99-3738.03-3737.99-2064.46 0-3738.01 1673.54-3738.01 3737.99 0 2064.5 1673.55 3738 3738.01 3738 2064.44 0 3738.03-1673.5 3738.03-3738" id="path62" inkscape:connector-curvature="0" style="fill-rule:evenodd;fill:#7fc82c"/>
          <path d="m9295.04 9866.67c0-2011.58-1630.71-3642.26-3642.28-3642.26-2011.57 0-3642.28 1630.68-3642.28 3642.26 0 2011.63 1630.71 3642.23 3642.28 3642.23 2011.57 0 3642.28-1630.6 3642.28-3642.23" id="path64" inkscape:connector-curvature="0" style="fill-rule:evenodd;fill:#7fc92a"/>
          <path d="m9199.3 9907.35c0-1958.71-1587.83-3546.53-3546.54-3546.53-1958.71 0-3546.54 1587.82-3546.54 3546.53 0 1958.65 1587.83 3546.55 3546.54 3546.55 1958.71 0 3546.54-1587.9 3546.54-3546.55" id="path66" inkscape:connector-curvature="0" style="fill-rule:evenodd;fill:#80c92a"/>
          <path d="m9103.56 9948.02c0-1905.83-1544.96-3450.81-3450.8-3450.81-1905.83 0-3450.8 1544.98-3450.8 3450.81 0 1905.78 1544.97 3450.78 3450.8 3450.78 1905.84 0 3450.8-1545 3450.8-3450.78" id="path68" inkscape:connector-curvature="0" style="fill-rule:evenodd;fill:#82ca2a"/>
          <path d="m9007.82 9988.7c0-1852.96-1502.1-3355.08-3355.06-3355.08-1852.95 0-3355.07 1502.12-3355.07 3355.08 0 1853 1502.12 3355.1 3355.07 3355.1 1852.96 0 3355.06-1502.1 3355.06-3355.1" id="path70" inkscape:connector-curvature="0" style="fill-rule:evenodd;fill:#83cb2a"/>
          <path d="m8912.08 10029.4c0-1800.11-1459.23-3259.38-3259.32-3259.38-1800.09 0-3259.33 1459.27-3259.33 3259.38 0 1800.1 1459.24 3259.3 3259.33 3259.3 1800.09 0 3259.32-1459.2 3259.32-3259.3" id="path72" inkscape:connector-curvature="0" style="fill-rule:evenodd;fill:#84cb2a"/>
          <path d="m8816.34 10070c0-1747.16-1416.37-3163.58-3163.58-3163.58-1747.21 0-3163.6 1416.42-3163.6 3163.58 0 1747.2 1416.39 3163.6 3163.6 3163.6 1747.21 0 3163.58-1416.4 3163.58-3163.6" id="path74" inkscape:connector-curvature="0" style="fill-rule:evenodd;fill:#85cc2a"/>
          <path d="m8720.6 10110.7c0-1694.31-1373.5-3067.84-3067.84-3067.84-1694.33 0-3067.86 1373.53-3067.86 3067.84 0 1694.3 1373.53 3067.9 3067.86 3067.9 1694.34 0 3067.84-1373.6 3067.84-3067.9" id="path76" inkscape:connector-curvature="0" style="fill-rule:evenodd;fill:#86cd2b"/>
          <path d="m8624.86 10151.4c0-1641.46-1330.63-2972.13-2972.1-2972.13-1641.46 0-2972.12 1330.67-2972.12 2972.13 0 1641.5 1330.66 2972.1 2972.12 2972.1 1641.47 0 2972.1-1330.6 2972.1-2972.1" id="path78" inkscape:connector-curvature="0" style="fill-rule:evenodd;fill:#87cd2a"/>
          <path d="m8529.12 10192.1c0-1588.62-1287.77-2876.42-2876.36-2876.42-1588.58 0-2876.38 1287.8-2876.38 2876.42 0 1588.6 1287.8 2876.4 2876.38 2876.4 1588.59 0 2876.36-1287.8 2876.36-2876.4" id="path80" inkscape:connector-curvature="0" style="fill-rule:evenodd;fill:#88ce2a"/>
          <path d="m8433.38 10232.7c0-1535.67-1244.9-2780.61-2780.62-2780.61-1535.71 0-2780.64 1244.94-2780.64 2780.61 0 1535.8 1244.93 2780.7 2780.64 2780.7 1535.72 0 2780.62-1244.9 2780.62-2780.7" id="path82" inkscape:connector-curvature="0" style="fill-rule:evenodd;fill:#89cf2a"/>
          <path d="m8337.64 10273.4c0-1482.82-1202.04-2684.9-2684.88-2684.9-1482.84 0-2684.91 1202.08-2684.91 2684.9 0 1482.8 1202.07 2684.9 2684.91 2684.9 1482.84 0 2684.88-1202.1 2684.88-2684.9" id="path84" inkscape:connector-curvature="0" style="fill-rule:evenodd;fill:#8acf2a"/>
          <path d="m8241.98 10314.1c0-1429.98-1159.25-2589.19-2589.22-2589.19-1429.96 0-2589.17 1159.21-2589.17 2589.19 0 1430 1159.21 2589.2 2589.17 2589.2 1429.97 0 2589.22-1159.2 2589.22-2589.2" id="path86" inkscape:connector-curvature="0" style="fill-rule:evenodd;fill:#8bd02b"/>
          <path d="m8146.24 10354.8c0-1377.12-1116.39-2493.47-2493.48-2493.47-1377.08 0-2493.43 1116.35-2493.43 2493.47 0 1377.1 1116.35 2493.4 2493.43 2493.4 1377.09 0 2493.48-1116.3 2493.48-2493.4" id="path88" inkscape:connector-curvature="0" style="fill-rule:evenodd;fill:#8cd02b"/>
          <path d="m8050.5 10395.4c0-1324.18-1073.52-2397.66-2397.74-2397.66-1324.22 0-2397.7 1073.48-2397.7 2397.66 0 1324.3 1073.48 2397.7 2397.7 2397.7 1324.22 0 2397.74-1073.4 2397.74-2397.7" id="path90" inkscape:connector-curvature="0" style="fill-rule:evenodd;fill:#8dd02a"/>
          <path d="m7954.76 10436.1c0-1271.33-1030.65-2301.96-2302-2301.96-1271.33 0-2301.97 1030.63-2301.97 2301.96 0 1271.4 1030.64 2302 2301.97 2302 1271.35 0 2302-1030.6 2302-2302" id="path92" inkscape:connector-curvature="0" style="fill-rule:evenodd;fill:#8ed129"/>
          <path d="m7859.02 10476.8c0-1218.48-987.79-2206.25-2206.26-2206.25-1218.46 0-2206.22 987.77-2206.22 2206.25 0 1218.4 987.76 2206.2 2206.22 2206.2 1218.47 0 2206.26-987.8 2206.26-2206.2" id="path94" inkscape:connector-curvature="0" style="fill-rule:evenodd;fill:#8fd129"/>
          <path d="m7763.28 10517.5c0-1165.63-944.92-2110.53-2110.52-2110.53-1165.59 0-2110.49 944.9-2110.49 2110.53 0 1165.6 944.9 2110.4 2110.49 2110.4 1165.6 0 2110.52-944.8 2110.52-2110.4" id="path96" inkscape:connector-curvature="0" style="fill-rule:evenodd;fill:#90d129"/>
          <path d="m7667.54 10558.1c0-1112.69-902.05-2014.71-2014.78-2014.71-1112.71 0-2014.74 902.02-2014.74 2014.71 0 1112.8 902.03 2014.8 2014.74 2014.8 1112.73 0 2014.78-902 2014.78-2014.8" id="path98" inkscape:connector-curvature="0" style="fill-rule:evenodd;fill:#91d128"/>
          <path d="m7571.78 10598.8c0-1059.84-859.17-1919-1919.02-1919-1059.85 0-1919.01 859.16-1919.01 1919 0 1059.9 859.16 1919 1919.01 1919 1059.85 0 1919.02-859.1 1919.02-1919" id="path100" inkscape:connector-curvature="0" style="fill-rule:evenodd;fill:#92d228"/>
          <path d="m7476.04 10639.5c0-1006.98-816.3-1823.29-1823.28-1823.29-1006.97 0-1823.28 816.31-1823.28 1823.29 0 1007 816.31 1823.3 1823.28 1823.3 1006.98 0 1823.28-816.3 1823.28-1823.3" id="path102" inkscape:connector-curvature="0" style="fill-rule:evenodd;fill:#93d228"/>
          <path d="m7380.31 10680.2c0-954.14-773.45-1727.59-1727.55-1727.59-954.1 0-1727.54 773.45-1727.54 1727.59 0 954.1 773.44 1727.5 1727.54 1727.5 954.1 0 1727.55-773.4 1727.55-1727.5" id="path104" inkscape:connector-curvature="0" style="fill-rule:evenodd;fill:#94d228"/>
          <path d="m9783.89 10150.9c-1.68-409.25-430.79-659.88-790.26-456.52-243.73 137.94-493.27 262.94-753.18 367.12-516.38 207.1-1051.57 346.4-1598.57 442.9-380.76 67.1-764.38 111.6-1150.09 134.8-401.05 24-802.36 26.9-1204.01 6.1-460.19-23.8-916.76-74.4-1367.3-171.7-166.25-35.9-330.56-81.2-494.97-125.1-100.82-26.9-200.19-30.4-300.62-1-219.81 64.3-371.34 261.3-377.85 491.9-6.33 224 131.87 432.3 349.04 503.8 158.99 52.5 322.14 93.6 485.4 131.4 404.13 93.4 813.91 151.1 1226.99 188.8 438.58 40.1 877.96 53 1317.65 40.4 1083.23-31 2145.39-189.4 3173.3-544.3 419.12-144.7 822.53-324.3 1205.95-548 136.63-79.7 228.4-192.1 263.34-347.6 8.32-36.9 10.3-75.3 15.18-113" id="path106" inkscape:connector-curvature="0" style="fill-rule:evenodd;fill:#6da82e"/>
          <path d="m4666.97 8888.42c-645.66-2.71-1307.04-82.74-1953.06-274.47-105.27-31.24-210.9-33.33-314.04 8.44-167.85 68-277.05 236.2-271.13 414.18 6.17 185.66 119.37 347.36 298.36 402 182.12 55.61 366.99 103.82 552.91 145.11 457.69 101.64 921.56 155.4 1390.28 173.19 1008.37 38.27 1993.42-92.17 2954.4-400.18 485.96-155.74 950.78-359.65 1389.81-620.78 21.89-13 43.56-26.27 65.23-39.52 229.01-139.9 256.32-421.53 147.15-600.98-124.88-205.19-384.56-269-600.38-147.28-121.75 68.68-242.05 140.26-366.55 203.71-570.58 290.82-1175.56 479.36-1803.33 598.18-483.33 91.49-971.21 136.2-1489.65 138.4" id="path108" inkscape:connector-curvature="0" style="fill-rule:evenodd;fill:#6da82e"/>
          <path d="m4767.91 7930.86c743.23-7.82 1470.3-108.28 2175.91-346.25 389.21-131.25 760.87-301.07 1113.85-511.34 30.59-18.2 61.64-36.14 89.87-57.61 142.42-108.17 179.42-303.93 87.73-458.18-88.88-149.52-277.54-209.63-438.89-138.46-32.34 14.34-62.7 33.49-93.29 51.65-598.22 354.66-1243.78 574.27-1929.98 679.36-421.08 64.47-844.5 86.83-1269.67 70.13-550-21.63-1093.09-97.93-1630.4-216.86-54.27-12.05-110.11-22.96-165.33-23.57-166.36-1.83-306.8 116.21-336 276.19-30.92 169.41 53 328.2 208.39 390.66 32.79 13.19 67.8 21.62 102.43 29.4 439.5 98.66 883.13 173.29 1332 211.25 250.56 21.2 502.22 29.51 753.38 43.63" id="path110" inkscape:connector-curvature="0" style="fill-rule:evenodd;fill:#6da82e"/>
          <path d="m9783.89 10120.4c-1.68-409.29-430.79-659.93-790.26-456.56-243.73 137.93-493.27 262.94-753.18 367.16-516.38 207-1051.57 346.3-1598.57 442.8-380.76 67.2-764.38 111.6-1150.09 134.8-401.05 24.1-802.36 26.9-1204.01 6.2-460.19-23.9-916.76-74.4-1367.3-171.7-166.25-35.9-330.56-81.2-494.97-125.1-100.82-27-200.19-30.4-300.62-1-219.81 64.3-371.34 261.2-377.85 491.8-6.33 224.1 131.87 432.3 349.04 503.9 158.99 52.4 322.14 93.6 485.4 131.3 404.13 93.5 813.91 151.2 1226.99 188.9 438.58 40 877.96 52.9 1317.65 40.3 1083.23-31 2145.39-189.4 3173.3-544.2 419.12-144.7 822.53-324.3 1205.95-548 136.63-79.8 228.4-192.2 263.34-347.7 8.32-36.9 10.3-75.2 15.18-112.9" id="path112" inkscape:connector-curvature="0" style="fill-rule:evenodd;fill:#100f0d"/>
          <path d="m4666.97 8857.88c-645.66-2.72-1307.04-82.75-1953.06-274.47-105.27-31.24-210.9-33.34-314.04 8.44-167.85 68-277.05 236.2-271.13 414.18 6.17 185.65 119.37 347.35 298.36 401.99 182.12 55.61 366.99 103.82 552.91 145.11 457.69 101.65 921.56 155.41 1390.28 173.19 1008.37 38.28 1993.42-92.16 2954.4-400.18 485.96-155.73 950.78-359.65 1389.81-620.78 21.89-12.99 43.56-26.27 65.23-39.52 229.01-139.89 256.32-421.53 147.15-600.98-124.88-205.19-384.56-268.99-600.38-147.27-121.75 68.67-242.05 140.26-366.55 203.7-570.58 290.83-1175.56 479.36-1803.33 598.18-483.33 91.49-971.21 136.21-1489.65 138.41" id="path114" inkscape:connector-curvature="0" style="fill-rule:evenodd;fill:#100f0d"/>
          <path d="m4767.91 7900.32c743.23-7.83 1470.3-108.28 2175.91-346.25 389.21-131.26 760.87-301.06 1113.85-511.35 30.59-18.21 61.64-36.13 89.87-57.57 142.42-108.18 179.42-304.01 87.73-458.18-88.88-149.52-277.54-209.72-438.89-138.46-32.34 14.26-62.7 33.49-93.29 51.64-598.22 354.58-1243.78 574.22-1929.98 679.33-421.08 64.48-844.5 86.84-1269.67 70.13-550-21.63-1093.09-97.93-1630.4-216.9-54.27-11.98-110.11-22.88-165.33-23.5-166.36-1.82-306.8 116.18-336 276.17-30.92 169.41 53 328.2 208.39 390.66 32.79 13.18 67.8 21.61 102.43 29.39 439.5 98.68 883.13 173.29 1332 211.26 250.56 21.2 502.22 29.51 753.38 43.63" id="path116" inkscape:connector-curvature="0" style="fill-rule:evenodd;fill:#100f0d"/>
        </g>
      </g>
    </g>
  </g>
</svg>
